<svg width="20" height="19" viewBox="0 0 20 19" fill="none" xmlns="http://www.w3.org/2000/svg">
<path d="M6.89219 15.2444C6.89219 15.3181 6.8073 15.3769 6.70026 15.3769C6.57846 15.388 6.49356 15.3291 6.49356 15.2444C6.49356 15.1708 6.57846 15.1119 6.6855 15.1119C6.79623 15.1009 6.89219 15.1598 6.89219 15.2444ZM5.74429 15.0788C5.71845 15.1524 5.79227 15.2371 5.903 15.2592C5.99897 15.296 6.1097 15.2592 6.13184 15.1855C6.15399 15.1119 6.08386 15.0273 5.97313 14.9941C5.87716 14.9684 5.77012 15.0052 5.74429 15.0788ZM7.37572 15.0162C7.26868 15.042 7.19486 15.1119 7.20593 15.1966C7.217 15.2702 7.31297 15.3181 7.4237 15.2923C7.53074 15.2665 7.60456 15.1966 7.59349 15.123C7.58241 15.053 7.48276 15.0052 7.37572 15.0162ZM9.8044 0.911255C4.68497 0.911255 0.768799 4.78718 0.768799 9.8925C0.768799 13.9746 3.34513 17.4677 7.02507 18.6971C7.49752 18.7817 7.66362 18.4909 7.66362 18.2517C7.66362 18.0235 7.65254 16.7646 7.65254 15.9916C7.65254 15.9916 5.06883 16.5438 4.52625 14.8948C4.52625 14.8948 4.10548 13.8236 3.50015 13.5476C3.50015 13.5476 2.65491 12.9697 3.55921 12.9807C3.55921 12.9807 4.47827 13.0543 4.98394 13.9304C5.79227 15.3512 7.14687 14.9426 7.67469 14.6997C7.75958 14.1107 7.9995 13.7022 8.26525 13.4592C6.20197 13.231 4.12024 12.9329 4.12024 9.39191C4.12024 8.37968 4.40076 7.87172 4.99132 7.22389C4.89535 6.98464 4.58162 5.99817 5.08729 4.7246C5.85871 4.48535 7.63409 5.71843 7.63409 5.71843C8.37229 5.5123 9.16586 5.40556 9.95205 5.40556C10.7382 5.40556 11.5318 5.5123 12.27 5.71843C12.27 5.71843 14.0454 4.48167 14.8168 4.7246C15.3225 6.00185 15.0087 6.98464 14.9128 7.22389C15.5033 7.8754 15.8651 8.38336 15.8651 9.39191C15.8651 12.9439 13.691 13.2273 11.6278 13.4592C11.9673 13.75 12.2552 14.3021 12.2552 15.1671C12.2552 16.4076 12.2442 17.9425 12.2442 18.2443C12.2442 18.4836 12.414 18.7744 12.8827 18.6897C16.5737 17.4677 19.0762 13.9746 19.0762 9.8925C19.0762 4.78718 14.9238 0.911255 9.8044 0.911255ZM4.35647 13.6065C4.30848 13.6433 4.31956 13.7279 4.3823 13.7979C4.44136 13.8568 4.52625 13.8825 4.57424 13.8347C4.62222 13.7979 4.61115 13.7132 4.5484 13.6433C4.48934 13.5844 4.40445 13.5586 4.35647 13.6065ZM3.95784 13.3083C3.932 13.3562 3.96891 13.4151 4.04273 13.4519C4.10179 13.4887 4.17561 13.4776 4.20144 13.4261C4.22728 13.3783 4.19037 13.3194 4.11655 13.2826C4.04273 13.2605 3.98367 13.2715 3.95784 13.3083ZM5.15373 14.6187C5.09467 14.6665 5.11682 14.777 5.20171 14.8469C5.2866 14.9316 5.39364 14.9426 5.44162 14.8837C5.48961 14.8359 5.46746 14.7254 5.39364 14.6555C5.31244 14.5708 5.20171 14.5598 5.15373 14.6187ZM4.73295 14.0776C4.67389 14.1144 4.67389 14.2101 4.73295 14.2948C4.79201 14.3794 4.89166 14.4163 4.93965 14.3794C4.9987 14.3316 4.9987 14.2359 4.93965 14.1512C4.88797 14.0666 4.79201 14.0298 4.73295 14.0776Z" fill="white"/>
</svg>
