<svg width="32" height="32" viewBox="0 0 32 32" fill="none" xmlns="http://www.w3.org/2000/svg">
<path d="M2.89533 15.7029C2.93343 14.0381 3.27629 12.4229 3.92009 10.9029C4.57914 9.34095 5.5239 7.94286 6.72771 6.73524C7.93152 5.52762 9.33343 4.58286 10.8953 3.92381C12.5106 3.2419 14.2249 2.89524 15.9963 2.89524C17.7677 2.89524 19.482 3.2419 21.0934 3.92381C22.6509 4.5815 24.0652 5.53645 25.2572 6.73524C25.6344 7.11238 25.9887 7.51238 26.3163 7.93143L24.0229 9.72191C23.9776 9.75701 23.943 9.8042 23.9233 9.85807C23.9035 9.91193 23.8994 9.97027 23.9113 10.0264C23.9233 10.0825 23.9508 10.1341 23.9908 10.1753C24.0307 10.2164 24.0815 10.2455 24.1372 10.259L30.8306 11.8971C31.021 11.9429 31.2077 11.7981 31.2077 11.6038L31.2382 4.71238C31.2382 4.45714 30.9449 4.31238 30.7468 4.47238L28.5982 6.15238C25.6687 2.40381 21.1125 0 15.9925 0C7.26486 0 0.163905 6.99429 9.52609e-05 15.6876C-0.00092152 15.7283 0.00621001 15.7687 0.0210698 15.8066C0.0359297 15.8444 0.058217 15.8789 0.0866187 15.9081C0.11502 15.9372 0.148962 15.9603 0.186443 15.9761C0.223924 15.9919 0.264186 16 0.304857 16H2.59057C2.75819 16 2.89152 15.8667 2.89533 15.7029ZM31.6953 16H29.4096C29.242 16 29.1087 16.1333 29.1049 16.2971C29.0668 17.9619 28.7239 19.5771 28.0801 21.0971C27.421 22.659 26.4763 24.061 25.2725 25.2648C24.0574 26.4848 22.6129 27.4523 21.0221 28.1114C19.4313 28.7704 17.7258 29.108 16.0039 29.1048C14.2826 29.108 12.5777 28.7703 10.9875 28.1112C9.39738 27.4522 7.95348 26.4847 6.73914 25.2648C6.362 24.8876 6.00771 24.4876 5.68009 24.0686L7.97343 22.2781C8.0188 22.243 8.05335 22.1958 8.07309 22.1419C8.09284 22.0881 8.09698 22.0297 8.08504 21.9736C8.0731 21.9175 8.04557 21.8659 8.00561 21.8247C7.96564 21.7836 7.91488 21.7545 7.85914 21.741L1.16581 20.1029C0.975333 20.0571 0.788666 20.2019 0.788666 20.3962L0.762 27.2914C0.762 27.5467 1.05533 27.6914 1.25343 27.5314L3.402 25.8514C6.33152 29.5962 10.8877 32 16.0077 32C24.7391 32 31.8363 25.0019 32.0001 16.3124C32.0011 16.2717 31.994 16.2313 31.9791 16.1934C31.9643 16.1556 31.942 16.1211 31.9136 16.0919C31.8852 16.0628 31.8512 16.0397 31.8137 16.0239C31.7763 16.0081 31.736 16 31.6953 16Z" fill="white"/>
</svg>
