<svg width="32" height="32" viewBox="0 0 32 32" fill="none" xmlns="http://www.w3.org/2000/svg">
<path d="M15.9999 0C7.16416 0 -0.00012207 7.16429 -0.00012207 16C-0.00012207 24.8357 7.16416 32 15.9999 32C24.8356 32 31.9999 24.8357 31.9999 16C31.9999 7.16429 24.8356 0 15.9999 0ZM22.9106 10.775L15.3892 21.2036C15.284 21.3503 15.1455 21.4699 14.9849 21.5523C14.8243 21.6348 14.6464 21.6778 14.466 21.6778C14.2854 21.6778 14.1076 21.6348 13.947 21.5523C13.7864 21.4699 13.6479 21.3503 13.5427 21.2036L9.08916 15.0321C8.95345 14.8429 9.08916 14.5786 9.32131 14.5786H10.9963C11.3606 14.5786 11.707 14.7536 11.9213 15.0536L14.4642 18.5821L20.0785 10.7964C20.2927 10.5 20.6356 10.3214 21.0034 10.3214H22.6784C22.9106 10.3214 23.0463 10.5857 22.9106 10.775Z" fill="white"/>
</svg>
