<?xml version="1.0" encoding="UTF-8"?>
<svg width="3033px" height="772px" viewBox="0 0 3033 772" version="1.1" xmlns="http://www.w3.org/2000/svg" xmlns:xlink="http://www.w3.org/1999/xlink">
    <!-- Generator: Sketch 58 (84663) - https://sketch.com -->
    <title>logo-dispute-resolver-white</title>
    <desc>Created with Sketch.</desc>
    <defs>
        <linearGradient x1="50%" y1="100%" x2="50%" y2="22.0986038%" id="linearGradient-1">
            <stop stop-color="#4D00B4" offset="0%"></stop>
            <stop stop-color="#9013FE" offset="100%"></stop>
        </linearGradient>
        <linearGradient x1="50%" y1="0%" x2="50%" y2="100%" id="linearGradient-2">
            <stop stop-color="#4D00B4" offset="0%"></stop>
            <stop stop-color="#1E075F" offset="100%"></stop>
        </linearGradient>
        <linearGradient x1="50%" y1="0%" x2="50%" y2="100%" id="linearGradient-3">
            <stop stop-color="#C89EFF" offset="0%"></stop>
            <stop stop-color="#7911F9" offset="100%"></stop>
        </linearGradient>
    </defs>
    <g id="logo-dispute-resolver-white" stroke="none" stroke-width="1" fill="none" fill-rule="evenodd">
        <g id="Group-3" transform="translate(45.000000, 37.000000)">
            <g id="Group-2">
                <g id="DISPUTE-RESOLVER-LOGO">
                    <circle id="Oval" fill="url(#linearGradient-1)" cx="348.7" cy="348.7" r="348.7"></circle>
                    <circle id="Oval" fill="url(#linearGradient-2)" cx="348.15" cy="348.15" r="315.15"></circle>
                    <path d="M310.69188,266.2 L401.95224,270.236059 L438.9,351.463509 L386.773573,425.7 L295.017104,419.886012 L257.4,331.876577 L310.69188,266.2 Z M369.339716,404.149878 L320.93543,416.610064 L377.858604,420.2 L369.339716,404.149878 Z M421.356826,368.86453 L378.985751,399.951563 L387.404983,416.15674 L421.356826,368.86453 Z M298.489298,354.994193 L299.877612,409.689555 L355.883262,395.358001 L298.489298,354.994193 Z M262.9,337.570569 L289.310616,398.850394 L288.211534,342.848626 L262.9,337.570569 Z M389.888943,312.042383 L379.565933,387.206641 L429,351.130233 L389.888943,312.042383 Z M376.919316,313.077019 L310.838078,341.512338 L367.333418,384.5335 L376.919316,313.077019 Z M302.217242,281.54512 L264.540318,328.40205 L289.730433,333.656991 L302.217242,281.54512 Z M401.315044,281.812942 L393.085387,298.452271 L423.717648,329.119812 L401.315044,281.812942 Z M316.458918,276.433393 L305.365577,323.519804 L369.268696,298.828349 L316.458918,276.433393 Z M337.270459,271.7 L381.641532,290.814565 L391.061335,273.850466 L337.270459,271.7 Z" id="Combined-Shape" fill="url(#linearGradient-3)"></path>
                    <path d="M522.214,505.075 C583.123276,505.075 632.5,484.789977 632.5,459.767133 C632.5,434.744289 411.928,434.744289 411.928,459.767133 C411.928,484.789977 461.304724,505.075 522.214,505.075 Z" id="Oval" fill="#FFFFFF" fill-rule="nonzero"></path>
                    <path d="M629.73597,463.15 L529.877766,307.582104 L413.236765,463.15 L629.73597,463.15 Z M619.669964,457.65 L424.23479,457.65 L529.527345,317.217896 L619.669964,457.65 Z" id="Path-118" fill="#E1BEFF" fill-rule="nonzero"></path>
                    <path d="M173.514,505.075 C234.423276,505.075 283.8,484.789977 283.8,459.767133 C283.8,434.744289 63.228,434.744289 63.228,459.767133 C63.228,484.789977 112.604724,505.075 173.514,505.075 Z" id="Oval" fill="#FFFFFF" fill-rule="nonzero"></path>
                    <path d="M281.42836,463.15 L167.398744,307.583775 L64.9314816,463.15 L281.42836,463.15 Z M270.577574,457.65 L75.140074,457.65 L167.640001,317.216225 L270.577574,457.65 Z" id="Path-118" fill="#E1BEFF" fill-rule="nonzero"></path>
                    <polygon id="Triangle" fill="#E1BEFF" points="347.05 160.6 387.2 200.75 306.9 200.75"></polygon>
                    <polygon id="Triangle" fill="#4D00B4" points="347.6 181.5 370.7 204.6 324.5 204.6"></polygon>
                    <path d="M347.05,192.5 C282.971544,192.5 222.732908,226.032698 166.518291,292.406024 L120.430228,292.406024 C115.873879,292.406024 112.180228,296.099674 112.180228,300.656024 C112.180228,305.212373 115.873879,308.906024 120.430228,308.906024 L170.362895,308.906024 C172.811987,308.906024 175.134483,307.817902 176.701924,305.9361 C230.731172,241.070944 287.449696,209 347.05,209 C406.745454,209 465.724734,241.167338 524.090644,306.167954 C525.655402,307.910585 527.887082,308.906024 530.229139,308.906024 L578.883594,308.906024 C583.439943,308.906024 587.133594,305.212373 587.133594,300.656024 C587.133594,296.099674 583.439943,292.406024 578.883594,292.406024 L533.891502,292.406024 C473.420807,226.015137 411.107404,192.5 347.05,192.5 Z" id="Path-119" fill="#E1BEFF" fill-rule="nonzero"></path>
                    <ellipse id="Oval" fill="#009AFF" cx="173.25" cy="460.000364" rx="102.85" ry="9.35"></ellipse>
                    <ellipse id="Oval" fill="#009AFF" cx="521.95" cy="460.000364" rx="102.85" ry="9.35"></ellipse>
                    <circle id="Oval" fill="#FFFFFF" cx="169.4" cy="303.6" r="20.9"></circle>
                    <circle id="Oval" fill="#4D00B4" cx="169.4" cy="303.6" r="12.1"></circle>
                    <circle id="Oval" fill="#FFFFFF" cx="530.2" cy="303.6" r="20.9"></circle>
                    <circle id="Oval" fill="#4D00B4" cx="530.2" cy="303.6" r="12.1"></circle>
                    <path d="M350.899964,162.816595 L351.450001,35.2165947 C351.459129,33.0903181 349.742871,31.3592007 347.616595,31.3499992 C345.490318,31.3408708 343.759201,33.0571288 343.750036,35.1834053 L343.199999,162.783405 C343.190871,164.909682 344.907129,166.640799 347.033405,166.650001 C349.159682,166.659129 350.890799,164.942871 350.899964,162.816595 Z" id="Path-120" fill="#E1BEFF" fill-rule="nonzero"></path>
                </g>
            </g>
            <path d="M834,432 L834,257 L870.633166,257 C887.520571,257 900.99295,258.60678 911.05067,261.820385 L912.241206,262.213731 C923.170909,265.614007 933.08287,271.394389 941.977387,279.555052 C959.992552,296.0275 969,317.6756 969,344.5 C969,371.399962 959.615672,393.161402 940.846734,409.784974 C931.920479,417.659298 922.588448,423.261669 912.850388,426.592236 L911.223618,427.126295 C901.575329,430.375448 887.894561,432 870.180905,432 L834,432 Z M861,406 L872.859504,406 C884.681418,406 894.507766,404.756794 902.338843,402.270344 C910.16992,399.6332 917.247902,395.451505 923.573003,389.725136 C936.524399,377.895661 943,362.487437 943,343.5 C943,324.361869 936.599697,308.840626 923.798898,296.935805 C912.278179,286.311882 895.298551,281 872.859504,281 L861,281 L861,406 Z M1029,257 L1029,432 L1002,432 L1002,257 L1029,257 Z M1168.51515,282.37578 L1147.32424,295.029963 C1143.5827,288.48524 1140.00789,284.090536 1136.59971,281.845734 L1136,281.47191 C1132.26261,279.061578 1127.44144,277.856429 1121.53636,277.856429 C1114.28582,277.856429 1108.26871,279.927778 1103.48485,284.070537 C1098.70099,288.137973 1096.30909,293.259853 1096.30909,299.43633 C1096.30909,307.947816 1102.58782,314.802096 1115.14545,319.999376 L1132.41212,327.117353 C1146.46472,332.841893 1156.74239,339.827986 1163.24545,348.075843 C1169.74852,356.323699 1173,366.435645 1173,378.411985 C1173,394.455761 1167.69298,407.71239 1157.07879,418.182272 C1146.38985,428.727477 1133.1223,434 1117.27576,434 C1102.25144,434 1089.84348,429.518355 1080.05152,420.554931 C1070.40904,411.591507 1064.39193,398.975113 1062,382.705368 L1088.46061,376.830212 C1089.60457,386.628738 1091.56918,393.532717 1094.35449,397.542335 L1094.73939,398.071161 C1100.12124,405.60345 1107.96965,409.369538 1118.28485,409.369538 C1126.43236,409.369538 1133.19694,406.620294 1138.57879,401.121723 C1143.96063,395.623152 1146.65152,388.655889 1146.65152,380.219725 C1146.65152,376.830195 1146.18435,373.723173 1145.25,370.898564 C1144.31565,368.073956 1142.85809,365.475355 1140.87727,363.102684 C1138.89645,360.730013 1136.33638,358.508021 1133.19697,356.436642 C1130.05756,354.365262 1126.32022,352.388066 1121.98485,350.504994 L1105.27879,343.5 C1081.58372,333.406733 1069.73636,318.643668 1069.73636,299.210362 C1069.73636,286.104179 1074.70702,275.144863 1084.64848,266.332085 C1094.58995,257.443984 1106.96053,253 1121.76061,253 C1141.71828,253 1157.30297,262.791829 1168.51515,282.37578 Z M1231.36721,360.934585 L1231.36721,432 L1205,432 L1205,257 L1234.87529,257 L1238.31911,257.019585 C1251.25666,257.169739 1261.16098,258.183281 1268.03233,260.060233 C1275.57664,262.100399 1282.21552,265.953987 1287.94919,271.621114 C1297.98311,281.444134 1303,293.836065 1303,308.79728 C1303,324.816358 1297.64363,337.510532 1286.93072,346.880181 C1276.21781,356.249831 1261.77068,360.934585 1243.58891,360.934585 L1231.36721,360.934585 Z M1232,336 L1242.02206,336 C1266.67414,336 1279,326.682535 1279,308.047325 C1279,290.015685 1266.29016,281 1240.8701,281 L1232,281 L1232,336 Z M1356.29659,256 L1356.29659,361.305344 C1356.29659,376.327471 1358.74188,387.310822 1363.63255,394.255725 C1370.93092,404.29564 1381.20116,409.315522 1394.44357,409.315522 C1407.76122,409.315522 1418.06908,404.29564 1425.36745,394.255725 C1430.25812,387.537286 1432.70341,376.553935 1432.70341,361.305344 L1432.70341,256 L1459,256 L1459,368.552163 C1459,386.971254 1453.28177,402.14413 1441.84514,414.071247 C1428.97894,427.357149 1413.17857,434 1394.44357,434 C1375.70857,434 1359.94582,427.357149 1347.15486,414.071247 C1335.71823,402.14413 1330,386.971254 1330,368.552163 L1330,256 L1356.29659,256 Z M1549.16561,281.821891 L1549.16561,432 L1522.94692,432 L1522.94692,281.821891 L1483,281.821891 L1483,257 L1589,257 L1589,281.821891 L1549.16561,281.821891 Z M1709,281.821891 L1638.527,281.821891 L1638.527,323.871762 L1706.9507,323.871762 L1706.9507,348.693653 L1638.527,348.693653 L1638.527,407.178109 L1709,407.178109 L1709,432 L1612,432 L1612,257 L1709,257 L1709,281.821891 Z M1873.03996,357.420984 L1927,432 L1894.82717,432 L1845.04396,360.367876 L1840.3027,360.367876 L1840.3027,432 L1814,432 L1814,257 L1844.81818,257 C1867.84727,257 1884.47914,261.344732 1894.71429,270.034326 C1906.00305,279.706223 1911.64735,292.475957 1911.64735,308.343912 C1911.64735,320.736029 1908.11026,331.390068 1901.03596,340.306347 C1893.96167,349.222627 1884.62976,354.927449 1873.03996,357.420984 Z M1842,336 L1850.22222,336 C1874.74086,336 1887,326.534108 1887,307.602041 C1887,289.867258 1875.07419,281 1851.22222,281 L1842,281 L1842,336 Z M2051,281.821891 L1980.527,281.821891 L1980.527,323.871762 L2048.9507,323.871762 L2048.9507,348.693653 L1980.527,348.693653 L1980.527,407.178109 L2051,407.178109 L2051,432 L1954,432 L1954,257 L2051,257 L2051,281.821891 Z M2183.51515,282.37578 L2162.32424,295.029963 C2158.5827,288.48524 2155.00789,284.090536 2151.59971,281.845734 L2151,281.47191 C2147.26261,279.061578 2142.44144,277.856429 2136.53636,277.856429 C2129.28582,277.856429 2123.26871,279.927778 2118.48485,284.070537 C2113.70099,288.137973 2111.30909,293.259853 2111.30909,299.43633 C2111.30909,307.947816 2117.58782,314.802096 2130.14545,319.999376 L2147.41212,327.117353 C2161.46472,332.841893 2171.74239,339.827986 2178.24545,348.075843 C2184.74852,356.323699 2188,366.435645 2188,378.411985 C2188,394.455761 2182.69298,407.71239 2172.07879,418.182272 C2161.38985,428.727477 2148.1223,434 2132.27576,434 C2117.25144,434 2104.84348,429.518355 2095.05152,420.554931 C2085.40904,411.591507 2079.39193,398.975113 2077,382.705368 L2103.46061,376.830212 C2104.60457,386.628738 2106.56918,393.532717 2109.35449,397.542335 L2109.73939,398.071161 C2115.12124,405.60345 2122.96965,409.369538 2133.28485,409.369538 C2141.43236,409.369538 2148.19694,406.620294 2153.57879,401.121723 C2158.96063,395.623152 2161.65152,388.655889 2161.65152,380.219725 C2161.65152,376.830195 2161.18435,373.723173 2160.25,370.898564 C2159.31565,368.073956 2157.85809,365.475355 2155.87727,363.102684 C2153.89645,360.730013 2151.33638,358.508021 2148.19697,356.436642 C2145.05756,354.365262 2141.32022,352.388066 2136.98485,350.504994 L2120.27879,343.5 C2096.58372,333.406733 2084.73636,318.643668 2084.73636,299.210362 C2084.73636,286.104179 2089.70702,275.144863 2099.64848,266.332085 C2109.58995,257.443984 2121.96053,253 2136.76061,253 C2156.71828,253 2172.30297,262.791829 2183.51515,282.37578 Z M2211,342.765147 C2211,318.194547 2219.98339,297.091281 2237.95043,279.454716 C2255.8423,261.81815 2277.34229,253 2302.45105,253 C2327.25911,253 2348.53358,261.893519 2366.27509,279.680824 C2384.09179,297.46813 2393,318.835187 2393,343.782636 C2393,368.880825 2384.0542,390.172513 2366.16233,407.658339 C2348.19528,425.219534 2326.50736,434 2301.09789,434 C2278.62029,434 2258.43586,426.199328 2240.54399,410.597751 C2220.8479,393.338036 2211,370.727394 2211,342.765147 Z M2238,344.049828 C2238,363.257255 2244.51509,379.050625 2257.54545,391.430412 C2270.50006,403.810199 2285.46204,410 2302.43182,410 C2320.841,410 2336.37115,403.697658 2349.02273,391.092784 C2361.67431,378.337851 2368,362.807079 2368,344.5 C2368,325.967834 2361.75006,310.437062 2349.25,297.907216 C2336.8257,285.302342 2321.44706,279 2303.11364,279 C2284.85597,279 2269.43946,285.302342 2256.86364,297.907216 C2244.28782,310.362032 2238,325.742749 2238,344.049828 Z M2453.11499,257 L2453.11499,407.178109 L2504,407.178109 L2504,432 L2427,432 L2427,257 L2453.11499,257 Z M2523.66423,257 L2571.66277,377.536145 L2620.33577,257 L2649,257 L2571.10073,444 L2495,257 L2523.66423,257 Z M2768,257 L2768,281.821891 L2697.527,281.821891 L2697.527,323.871762 L2765.9507,323.871762 L2765.9507,348.693653 L2697.527,348.693653 L2697.527,407.178109 L2768,407.178109 L2768,432 L2671,432 L2671,257 L2768,257 Z M2832.81818,257 C2855.84727,257 2872.47914,261.344732 2882.71429,270.034326 C2894.00305,279.706223 2899.64735,292.475957 2899.64735,308.343912 C2899.64735,320.736029 2896.11026,331.390068 2889.03596,340.306347 C2881.96167,349.222627 2872.62976,354.927449 2861.03996,357.420984 L2915,432 L2882.82717,432 L2833.04396,360.367876 L2828.3027,360.367876 L2828.3027,432 L2802,432 L2802,257 L2832.81818,257 Z M2837.22222,281 L2828,281 L2828,336 L2836.22222,336 C2860.74086,336 2873,326.534108 2873,307.602041 C2873,289.867258 2861.07419,281 2837.22222,281 L2837.22222,281 Z" id="DISPUTERESOLVER" fill="#FFFFFF" fill-rule="nonzero"></path>
        </g>
    </g>
</svg>