<svg width="19" height="16" viewBox="0 0 19 16" fill="none" xmlns="http://www.w3.org/2000/svg">
<path d="M16.9087 4.20083C16.9206 4.36823 16.9206 4.53568 16.9206 4.70308C16.9206 9.80914 13.0343 15.6925 5.93119 15.6925C3.74286 15.6925 1.71001 15.0587 0 13.9586C0.31092 13.9945 0.609841 14.0064 0.932724 14.0064C2.73836 14.0064 4.40055 13.3966 5.7279 12.3562C4.02986 12.3204 2.60684 11.2083 2.11656 9.67762C2.35574 9.71347 2.59488 9.7374 2.84602 9.7374C3.1928 9.7374 3.5396 9.68955 3.86245 9.60588C2.09267 9.24711 0.765283 7.69258 0.765283 5.81517V5.76736C1.27946 6.05435 1.87741 6.23372 2.51114 6.25761C1.47079 5.56403 0.789209 4.3802 0.789209 3.04089C0.789209 2.32342 0.980502 1.66573 1.31535 1.09174C3.21668 3.43551 6.07467 4.96611 9.27939 5.13355C9.21962 4.84656 9.18373 4.54764 9.18373 4.24868C9.18373 2.12013 10.9057 0.38623 13.0462 0.38623C14.1583 0.38623 15.1627 0.852593 15.8683 1.60595C16.7412 1.43855 17.5782 1.11566 18.3197 0.673225C18.0326 1.5701 17.4228 2.32346 16.6216 2.80174C17.3989 2.71808 18.1523 2.50279 18.8458 2.20386C18.3198 2.96915 17.662 3.65073 16.9087 4.20083Z" fill="white"/>
</svg>
