<svg width="16" height="16" viewBox="0 0 16 16" fill="none" xmlns="http://www.w3.org/2000/svg">
<path d="M8 0.25C3.71875 0.25 0.25 3.71875 0.25 8C0.25 12.2812 3.71875 15.75 8 15.75C12.2812 15.75 15.75 12.2812 15.75 8C15.75 3.71875 12.2812 0.25 8 0.25ZM9.78438 11.1906L7.02812 9.1875C6.93125 9.11563 6.875 9.00312 6.875 8.88437V3.625C6.875 3.41875 7.04375 3.25 7.25 3.25H8.75C8.95625 3.25 9.125 3.41875 9.125 3.625V7.92812L11.1094 9.37187C11.2781 9.49375 11.3125 9.72813 11.1906 9.89688L10.3094 11.1094C10.1875 11.275 9.95312 11.3125 9.78438 11.1906Z" fill="#4D00B4"/>
</svg>
