<svg width="68" height="67" viewBox="0 0 68 67" fill="none" xmlns="http://www.w3.org/2000/svg">
<path d="M34.1094 0L48.6819 8.25969L63.1212 16.75L63.2544 33.5L63.1212 50.25L48.6819 58.7403L34.1094 67L19.5369 58.7403L5.09752 50.25L4.96437 33.5L5.09752 16.75L19.5369 8.25969L34.1094 0Z" fill="#1E075F"/>
<path d="M46.4957 31.3884H44.0008V28.8719C44.0008 27.4826 42.881 26.3554 41.5007 26.3554H33.1671L29.8337 23H21.5001C20.1198 23 19 24.1272 19 25.5165V40.6157C19 42.005 20.1198 43.1322 21.5001 43.1322H42.3341C43.1935 43.1322 43.9956 42.6866 44.454 41.9474L48.6155 35.2366C49.6572 33.5642 48.4593 31.3884 46.4957 31.3884ZM21.5001 25.8311C21.5001 25.6581 21.6407 25.5165 21.8126 25.5165H28.7972L32.1306 28.8719H41.1882C41.3601 28.8719 41.5007 29.0135 41.5007 29.1865V31.3884H26.9169C26.0419 31.3884 25.2294 31.8498 24.7762 32.6048L21.5001 38.0677V25.8311ZM42.3341 40.6157H22.7501L26.7711 33.905H46.5009L42.3341 40.6157Z" fill="white"/>
</svg>
